            <svg width="1442" height="1116" viewBox="0 0 1442 1116" fill="none" xmlns="http://www.w3.org/2000/svg">
<path d="M-1.00004 95.5637C-1.00004 352.789 1482.07 -210.106 1443.25 91.4658C1442.93 93.968 1442.64 96.8319 1442.64 99.3547V1071C1442.64 1095.85 1422.49 1116 1397.64 1116H44.0001C19.1473 1116 -0.999965 1096.54 -0.999966 1071.69C-0.999979 848.4 -1.00004 -133.823 -1.00004 95.5637Z" fill="#FFFAF0"/>
<path opacity="0.06" d="M308.562 307.485C268.595 443.839 127.581 522.541 -6.40234 483.27C-140.385 443.998 -216.601 301.625 -176.634 165.27C-136.667 28.9146 -69.9832 112.105 63.9998 151.377C197.983 190.649 348.529 171.13 308.562 307.485Z" fill="#E6A000"/>
<path opacity="0.13" d="M1525 1012C1525 1137.37 1510.1 1108.5 1377 1108.5C1243.9 1108.5 1043 1137.37 1043 1012C1043 886.631 1150.9 785 1284 785C1417.1 785 1525 886.631 1525 1012Z" fill="#DC8931"/>
</svg>
