<svg width="52" height="52" viewBox="0 0 52 52" fill="none" xmlns="http://www.w3.org/2000/svg">
<path d="M25.9999 15.1667C25.9999 12.8681 25.0868 10.6637 23.4615 9.03841C21.8362 7.41309 19.6318 6.5 17.3333 6.5H4.33325V39H19.4999C21.2238 39 22.8771 39.6848 24.0961 40.9038C25.3151 42.1228 25.9999 43.7761 25.9999 45.5M25.9999 15.1667V45.5M25.9999 15.1667C25.9999 12.8681 26.913 10.6637 28.5383 9.03841C30.1636 7.41309 32.368 6.5 34.6666 6.5H47.6666V39H32.4999C30.776 39 29.1227 39.6848 27.9037 40.9038C26.6847 42.1228 25.9999 43.7761 25.9999 45.5" stroke="#DC8931" stroke-width="4" stroke-linecap="round" stroke-linejoin="round"/>
</svg>
