<svg width="25" height="26" viewBox="0 0 25 26" fill="none" xmlns="http://www.w3.org/2000/svg">
<path d="M12.5 2.16667L0 8L3.33333 9.5V12.3333C2.33333 12.6667 1.66667 13.6667 1.66667 14.6667C1.66667 15.6667 2.33333 16.6667 3.33333 17V17.1667L1.83333 20.6667C1.33333 22.1667 1.66667 23.8333 4.16667 23.8333C6.66667 23.8333 7 22.1667 6.5 20.6667L5 17.1667C6 16.6667 6.66667 15.8333 6.66667 14.6667C6.66667 13.5 6 12.6667 5 12.3333V10.3333L12.5 13.8333L25 8L12.5 2.16667ZM19.8333 13L12.3333 16.3333L8.33333 14.5V14.6667C8.33333 15.8333 7.83333 16.8333 7 17.6667L8 20V20.1667C8.16667 20.8333 8.33333 21.5 8.16667 22.1667C9.33333 22.6667 10.6667 23 12.3333 23C17.8333 23 19.8333 19.6667 19.8333 18V13Z" fill="#6B7280"/>
</svg>
