<svg width="25" height="24" viewBox="0 0 25 24" fill="none" xmlns="http://www.w3.org/2000/svg">
<path d="M16.6666 21.375V4.70833C16.6666 4.1558 16.4471 3.62589 16.0564 3.23519C15.6657 2.84449 15.1358 2.625 14.5833 2.625H10.4166C9.86405 2.625 9.33415 2.84449 8.94345 3.23519C8.55275 3.62589 8.33325 4.1558 8.33325 4.70833V21.375M4.16659 6.79167H20.8333C21.9838 6.79167 22.9166 7.72441 22.9166 8.875V19.2917C22.9166 20.4423 21.9838 21.375 20.8333 21.375H4.16659C3.01599 21.375 2.08325 20.4423 2.08325 19.2917V8.875C2.08325 7.72441 3.01599 6.79167 4.16659 6.79167Z" stroke="#757575" stroke-width="4" stroke-linecap="round" stroke-linejoin="round"/>
</svg>
