<svg width="21" height="18" viewBox="0 0 21 18" fill="none" xmlns="http://www.w3.org/2000/svg">
<path fill-rule="evenodd" clip-rule="evenodd" d="M2.72939 2.36874C3.74077 1.35713 5.0803 0.740144 6.50645 0.62903C7.9326 0.517916 9.35153 0.919985 10.5074 1.76274C11.7286 0.879168 13.2376 0.487459 14.7344 0.665474C16.2312 0.84349 17.6063 1.5782 18.5862 2.72356C19.5661 3.86892 20.0792 5.34107 20.0235 6.84739C19.9678 8.35372 19.3473 9.78393 18.2854 10.8537L12.6284 16.5107C12.0658 17.0732 11.3029 17.3891 10.5074 17.3891C9.71189 17.3891 8.94897 17.0732 8.38639 16.5107L2.72939 10.8547C1.60425 9.72954 0.972168 8.20347 0.972168 6.61224C0.972168 5.02101 1.60425 3.49395 2.72939 2.36874Z" fill="#6B7280"/>
</svg>
